<svg xmlns="http://www.w3.org/2000/svg" viewBox="0 0 299 181" width="299" height="181">
	<defs>
		<clipPath clipPathUnits="userSpaceOnUse" id="cp1">
			<path d="M-263 -300L1337 -300L1337 3367L-263 3367Z" />
		</clipPath>
	</defs>
	<style>
		tspan { white-space:pre }
		.shp0 { fill: none;stroke: #f48477;stroke-width: 2 } 
		.shp1 { fill: none;stroke: #c6a6d3;stroke-width: 2 } 
		.shp2 { fill: none;stroke: #cadfa0;stroke-width: 2 } 
	</style>
	<g id="PC" clip-path="url(#cp1)">
		<g id="header">
			<g id="home">
				<g id="home__title">
					<g id="Group 3">
						<path id="Rectangle 14" class="shp0" d="M0 38L10 38L10 48L0 48L0 38Z" />
						<path id="Rectangle 22" class="shp0" d="M271.77 0L271.77 10L261.77 10L261.77 0L271.77 0Z" />
						<path id="Rectangle 15" class="shp1" d="M53 81L53 81C55.76 81 58 83.23 58 86L58 86C58 88.76 55.76 91 53 91L53 91C50.23 91 48 88.76 48 86L48 86C48 83.23 50.23 81 53 81Z" />
						<path id="Rectangle 23" class="shp1" d="M228.77 53L228.77 53C228.77 55.76 226.53 58 223.77 58L223.77 58C221 58 218.77 55.76 218.77 53L218.77 53C218.77 50.23 221 48 223.77 48L223.77 48C226.53 48 228.77 50.23 228.77 53Z" />
						<path id="Polygon 1" class="shp0" d="M80 11L86 21L74 21L80 11Z" />
						<path id="Polygon 5" class="shp0" d="M298.77 80L288.77 86L288.77 74L298.77 80Z" />
						<path id="Rectangle 16" class="shp2" d="M53.43 38.1L56.02 47.76L46.36 50.35L43.77 40.69L53.43 38.1Z" />
						<path id="Rectangle 24" class="shp2" d="M271.67 53.43L262.01 56.02L259.42 46.36L269.08 43.77L271.67 53.43Z" />
						<path id="Rectangle 17" class="shp0" d="M25.61 100.42L25.61 100.42C26.33 103.09 24.75 105.83 22.07 106.55L22.07 106.55C19.4 107.26 16.67 105.68 15.95 103.01L15.95 103.01C15.24 100.34 16.82 97.6 19.49 96.89L19.49 96.89C22.16 96.17 24.89 97.75 25.61 100.42Z" />
						<path id="Rectangle 25" class="shp0" d="M209.34 25.61L209.34 25.61C206.67 26.33 203.94 24.75 203.22 22.07L203.22 22.07C202.5 19.4 204.09 16.67 206.76 15.95L206.76 15.95C209.43 15.24 212.16 16.82 212.88 19.49L212.88 19.49C213.6 22.16 212.02 24.89 209.34 25.61Z" />
						<path id="Polygon 2" class="shp2" d="M85.21 101.38L77.11 109.77L74 98.18L85.21 101.38Z" />
						<path id="Polygon 6" class="shp2" d="M193.38 80.21L185 72.11L196.59 69L193.38 80.21Z" />
						<path id="Rectangle 18" class="shp0" d="M80 60L90 60L90 70L80 70L80 60Z" />
						<path id="Rectangle 26" class="shp0" d="M249.77 80L249.77 90L239.77 90L239.77 80L249.77 80Z" />
						<path id="Rectangle 19" class="shp1" d="M133 103L133 103C135.76 103 138 105.23 138 108L138 108C138 110.76 135.76 113 133 113L133 113C130.23 113 128 110.76 128 108L128 108C128 105.23 130.23 103 133 103Z" />
						<path id="Rectangle 27" class="shp1" d="M206.77 133L206.77 133C206.77 135.76 204.53 138 201.77 138L201.77 138C199 138 196.77 135.76 196.77 133L196.77 133C196.77 130.23 199 128 201.77 128L201.77 128C204.53 128 206.77 130.23 206.77 133Z" />
						<path id="Polygon 3" class="shp0" d="M160 33L166 43L154 43L160 33Z" />
						<path id="Polygon 7" class="shp0" d="M276.77 160L266.77 166L266.77 154L276.77 160Z" />
						<path id="Rectangle 20" class="shp2" d="M133.43 60.1L136.02 69.76L126.36 72.35L123.77 62.69L133.43 60.1Z" />
						<path id="Rectangle 28" class="shp2" d="M249.67 133.43L240.01 136.02L237.42 126.36L247.08 123.77L249.67 133.43Z" />
						<path id="Rectangle 21" class="shp0" d="M105.61 122.42L105.61 122.42C106.33 125.09 104.75 127.83 102.07 128.55L102.07 128.55C99.4 129.26 96.67 127.68 95.95 125.01L95.95 125.01C95.24 122.34 96.82 119.6 99.49 118.89L99.49 118.89C102.16 118.17 104.89 119.75 105.61 122.42Z" />
						<path id="Rectangle 29" class="shp0" d="M187.34 105.61L187.34 105.61C184.67 106.33 181.94 104.75 181.22 102.07L181.22 102.07C180.51 99.4 182.09 96.67 184.76 95.95L184.76 95.95C187.43 95.24 190.16 96.82 190.88 99.49L190.88 99.49C191.6 102.16 190.02 104.89 187.34 105.61Z" />
						<path id="Polygon 4" class="shp2" d="M180.21 130.38L172.11 138.77L169 127.18L180.21 130.38Z" />
						<path id="Polygon 8" class="shp2" d="M179.38 180.21L171 172.11L182.59 169L179.38 180.21Z" />
					</g>
				</g>
			</g>
		</g>
	</g>
</svg>